<svg xmlns="http://www.w3.org/2000/svg" viewBox="0 0 1024 1024">
  <defs>
    <linearGradient id="g" x1="0" y1="0" x2="0" y2="1">
      <stop offset="0" stop-color="#FF9F43"/>
      <stop offset="1" stop-color="#FF3B30"/>
    </linearGradient>
  </defs>
  <rect width="1024" height="1024" rx="224" fill="#FFFFFF"/>
  <g fill="url(#g)">
    <circle cx="512" cy="540" r="250"/>
    <path d="M320 400 q-30 -90 70 -100 q-10 70 -30 110 Z"/>
    <path d="M704 400 q30 -90 -70 -100 q10 70 30 110 Z"/>
  </g>
  <ellipse cx="430" cy="528" rx="34" ry="22" fill="#FFFFFF" opacity="0.55"/>
  <ellipse cx="594" cy="528" rx="34" ry="22" fill="#FFFFFF" opacity="0.55"/>
  <ellipse cx="512" cy="610" rx="140" ry="100" fill="#FFFFFF"/>
  <ellipse cx="468" cy="610" rx="16" ry="22" fill="url(#g)"/>
  <ellipse cx="556" cy="610" rx="16" ry="22" fill="url(#g)"/>
  <path d="M408 490 q22 -26 44 0" stroke="#FFFFFF" stroke-width="14" stroke-linecap="round" fill="none"/>
  <path d="M572 490 q22 -26 44 0" stroke="#FFFFFF" stroke-width="14" stroke-linecap="round" fill="none"/>
</svg>
